<?xml version="1.0" standalone="no"?>
<!DOCTYPE svg PUBLIC "-//W3C//DTD SVG 20010904//EN"
 "http://www.w3.org/TR/2001/REC-SVG-20010904/DTD/svg10.dtd">
<svg version="1.0" xmlns="http://www.w3.org/2000/svg"
 width="400.000000pt" height="400.000000pt" viewBox="0 0 400.000000 400.000000"
 preserveAspectRatio="xMidYMid meet">
<metadata>
Created by potrace 1.14, written by Peter Selinger 2001-2017
</metadata>
<g transform="translate(0.000000,400.000000) scale(0.100000,-0.100000)"
fill="#000000" stroke="none">
<path d="M1533 3915 c0 -8 4 -12 9 -9 4 3 8 9 8 15 0 5 -4 9 -8 9 -5 0 -9 -7
-9 -15z"/>
<path d="M1430 3896 c0 -2 7 -9 15 -16 13 -11 14 -10 9 4 -5 14 -24 23 -24 12z"/>
<path d="M1530 3877 c0 -5 -8 -6 -17 -2 -14 5 -15 3 -7 -5 8 -8 18 -9 30 -2
11 5 25 7 32 5 6 -3 12 -1 12 4 0 5 -11 9 -25 9 -14 0 -25 -4 -25 -9z"/>
<path d="M1599 3873 c-13 -16 -12 -17 4 -4 9 7 17 15 17 17 0 8 -8 3 -21 -13z"/>
<path d="M1333 3865 c0 -8 4 -12 9 -9 5 3 6 10 3 15 -9 13 -12 11 -12 -6z"/>
<path d="M1413 3873 c4 -3 1 -13 -6 -22 -11 -14 -10 -14 5 -2 16 12 16 31 1
31 -4 0 -3 -3 0 -7z"/>
<path d="M1460 3860 c-12 -7 -10 -9 8 -7 12 0 22 5 22 9 0 11 -12 10 -30 -2z"/>
<path d="M2013 3834 c0 -9 4 -11 12 -4 7 5 14 9 16 7 2 -1 3 0 1 2 -7 11 -29
7 -29 -5z"/>
<path d="M2106 3822 c-2 -4 4 -8 14 -8 10 0 16 4 14 8 -3 4 -9 8 -14 8 -5 0
-11 -4 -14 -8z"/>
<path d="M2153 3815 c0 -8 4 -12 9 -9 5 3 6 10 3 15 -9 13 -12 11 -12 -6z"/>
<path d="M2206 3818 c3 -5 10 -6 15 -3 13 9 11 12 -6 12 -8 0 -12 -4 -9 -9z"/>
<path d="M2027 3813 c-3 -5 6 -9 20 -10 19 -1 22 1 12 8 -17 11 -26 11 -32 2z"/>
<path d="M2240 3806 c0 -2 8 -10 18 -17 15 -13 16 -12 3 4 -13 16 -21 21 -21
13z"/>
<path d="M2116 3788 c3 -5 10 -6 15 -3 13 9 11 12 -6 12 -8 0 -12 -4 -9 -9z"/>
<path d="M2176 3791 c-3 -4 6 -8 20 -9 13 -1 24 0 24 2 0 7 -40 14 -44 7z"/>
<path d="M1676 3732 c-2 -1 -28 -4 -57 -6 -84 -6 -277 -73 -324 -113 -22 -19
-44 -38 -50 -42 -30 -25 -88 -97 -111 -138 -14 -27 -34 -59 -43 -73 -10 -14
-23 -41 -31 -60 -7 -19 -19 -48 -26 -65 -45 -109 -77 -487 -49 -588 6 -22 4
-26 -8 -21 -25 9 -56 -13 -52 -38 2 -13 6 -46 9 -74 3 -28 12 -69 19 -90 8
-21 21 -61 28 -89 34 -132 135 -266 175 -234 17 14 29 -8 44 -76 19 -91 37
-140 75 -212 19 -36 35 -77 35 -91 0 -23 -43 -148 -74 -212 -7 -16 -26 -30
-51 -37 -22 -7 -85 -35 -140 -63 -86 -43 -118 -55 -157 -59 -5 -1 -8 -9 -8
-18 0 -10 -25 -36 -55 -57 -48 -35 -53 -41 -41 -55 7 -9 11 -21 9 -28 -2 -6 1
-14 6 -17 7 -5 7 -16 0 -34 -6 -15 -11 -29 -11 -32 -1 -3 -14 -13 -29 -22 -16
-10 -29 -22 -29 -28 0 -5 -11 -12 -24 -16 -34 -8 -41 -42 -11 -50 27 -7 72
-51 62 -61 -4 -3 -2 -12 4 -19 7 -9 7 -19 -1 -34 -6 -12 -9 -28 -6 -35 2 -7
-2 -19 -10 -25 -8 -7 -14 -21 -14 -32 0 -12 -10 -23 -28 -29 -31 -10 -39 -47
-14 -62 7 -5 10 -17 7 -27 -3 -10 0 -20 8 -23 17 -6 20 -57 3 -57 -6 0 -5 -4
2 -9 15 -9 12 -14 -33 -46 -20 -15 -20 -15 7 -39 31 -27 36 -46 14 -46 -24 0
-30 -22 -11 -36 17 -13 16 -15 -15 -25 -31 -11 -32 -13 -15 -26 22 -15 27 -37
15 -68 -5 -14 -5 -26 2 -33 8 -8 -1 -23 -30 -53 -23 -23 -39 -45 -37 -49 4 -7
81 -21 140 -25 17 -1 35 -3 40 -5 6 -1 13 -2 18 -1 4 0 7 -3 7 -9 0 -6 9 -6
25 0 18 7 25 6 25 -2 0 -6 3 -8 7 -5 3 4 13 1 21 -6 9 -6 13 -7 10 -2 -5 8 30
12 58 6 4 0 -2 -13 -12 -29 -15 -23 -15 -25 -1 -14 9 8 19 23 22 33 6 17 9 18
22 8 12 -10 16 -10 23 0 5 9 9 10 14 2 4 -6 13 -8 19 -4 20 13 121 10 149 -4
16 -8 29 -9 33 -4 3 6 23 9 45 9 22 0 38 -3 36 -7 -3 -4 5 -8 17 -8 17 -2 19
0 7 7 -8 5 -13 10 -10 10 3 1 43 2 90 3 47 1 90 6 97 10 6 4 14 3 18 -3 4 -6
11 -8 16 -5 5 4 9 1 9 -4 0 -6 5 -11 11 -11 5 0 8 4 5 9 -3 5 20 8 52 6 43 -1
56 -5 54 -16 -3 -10 1 -10 14 3 12 12 23 14 39 8 12 -4 51 -8 86 -8 80 0 208
-10 220 -18 5 -3 14 -2 21 2 6 4 44 9 82 10 39 2 114 5 166 8 52 3 99 2 104
-2 6 -3 42 -5 81 -4 144 5 341 4 371 -2 21 -4 36 -1 43 8 9 11 1 23 -41 60
l-53 46 41 37 c34 32 40 44 40 77 -1 32 3 40 21 42 12 2 23 -3 27 -12 4 -10 2
-13 -7 -7 -19 12 -37 12 -37 1 0 -6 6 -8 13 -5 8 3 14 -1 14 -9 0 -7 -5 -10
-11 -7 -6 4 -4 -2 4 -12 12 -15 12 -17 1 -10 -10 5 -12 4 -7 -4 4 -6 12 -8 18
-5 7 4 8 2 4 -5 -4 -6 -12 -9 -17 -6 -5 4 -9 1 -9 -4 0 -6 7 -11 15 -11 8 0
15 -4 15 -10 0 -5 5 -10 11 -10 8 0 8 4 2 13 -17 20 -11 46 8 44 19 -1 33 -23
24 -37 -3 -4 8 -15 23 -24 27 -17 27 -17 5 2 -13 12 -18 23 -13 32 4 7 6 19 3
27 -6 16 13 18 23 1 4 -6 3 -8 -3 -5 -11 7 -11 -22 0 -41 11 -17 45 -9 62 15
13 19 13 22 -1 27 -8 3 -13 2 -9 -3 9 -15 -4 -37 -24 -38 -10 -1 -18 4 -18 12
0 7 6 11 14 8 7 -3 13 0 13 7 0 6 -4 9 -9 6 -5 -3 -12 1 -15 10 -4 12 -2 15 9
10 8 -3 15 -1 15 5 0 6 -8 9 -17 8 -31 -3 -44 1 -38 11 3 5 13 6 23 3 11 -4 8
2 -8 16 -18 17 -20 21 -7 17 11 -3 16 -2 12 4 -3 6 -1 10 6 10 7 0 9 3 5 7 -3
4 4 13 16 21 13 7 15 11 6 8 -20 -6 -34 10 -16 18 7 3 4 4 -6 3 -10 -1 -21 4
-24 12 -2 8 0 11 5 8 5 -3 10 0 10 8 0 8 -4 15 -9 15 -4 0 -8 -5 -8 -11 0 -5
-4 -7 -10 -4 -6 4 -7 -1 -3 -12 6 -16 5 -17 -11 -4 -17 14 -17 16 0 28 10 7
15 15 12 18 -2 3 -13 -4 -23 -15 -20 -22 -44 -29 -28 -7 23 28 -1 68 -29 51
-6 -4 -8 1 -3 15 6 21 -8 30 -20 11 -10 -16 -21 -12 -22 9 -1 13 3 18 12 15 7
-3 16 0 20 6 5 8 12 5 22 -7 13 -16 13 -16 3 5 -9 19 -14 21 -26 11 -8 -6 -18
-8 -22 -4 -4 4 -1 10 6 12 6 3 12 9 12 14 0 6 -4 8 -8 5 -14 -8 -31 9 -35 34
-3 16 -11 25 -21 25 -25 0 -49 35 -35 51 6 7 18 10 27 7 14 -4 15 -3 2 6 -11
7 -19 6 -32 -6 -10 -9 -18 -11 -18 -5 0 6 5 14 10 17 6 4 7 11 4 17 -5 7 -1 9
9 5 9 -3 19 -3 21 2 11 17 -30 7 -51 -12 -13 -11 -23 -16 -23 -10 0 6 7 16 15
23 17 14 20 30 4 30 -5 0 -7 -5 -3 -12 5 -7 2 -9 -9 -5 -11 4 -14 2 -10 -9 4
-10 0 -12 -11 -8 -9 3 -13 11 -9 17 3 6 1 7 -5 3 -7 -4 -12 -2 -12 3 0 6 9 11
20 11 11 0 20 4 20 10 0 5 -6 7 -14 4 -8 -3 -17 -1 -20 4 -9 15 4 43 16 36 6
-4 5 -10 -3 -15 -8 -5 -9 -9 -3 -9 17 0 37 27 31 42 -3 8 -6 6 -6 -5 -1 -10
-5 -16 -11 -12 -5 3 -7 13 -4 23 5 16 5 16 -6 0 -11 -19 -30 -24 -30 -10 0 5
18 18 39 29 30 16 42 18 51 9 10 -8 11 -8 6 2 -8 13 22 28 77 37 17 4 34 10
37 15 3 5 19 12 35 16 43 11 60 30 43 47 -13 14 -21 17 -37 17 -11 0 -9 19 3
39 7 11 5 13 -7 8 -9 -3 -18 1 -21 9 -8 21 -8 24 5 24 5 0 8 -4 4 -9 -3 -6 8
-8 25 -6 18 2 29 0 27 -7 -1 -6 5 -13 13 -15 10 -3 11 -2 4 4 -6 4 -10 16 -8
25 2 14 -2 16 -15 8 -12 -6 -24 -5 -39 6 -19 13 -21 12 -27 -7 -6 -16 -9 -18
-15 -8 -5 7 -6 17 -4 21 3 4 -2 8 -10 8 -9 0 -16 5 -16 10 0 7 6 7 18 1 12 -6
23 -6 33 1 12 8 12 9 -2 5 -20 -6 -54 14 -54 33 0 8 6 21 13 29 11 11 15 11
27 -5 8 -11 15 -14 16 -9 0 6 5 -1 10 -15 l8 -25 -2 25 c-1 14 -6 24 -10 22
-5 -2 -15 5 -22 15 -13 17 -14 17 -33 -1 -12 -10 -18 -24 -16 -31 3 -7 1 -16
-5 -20 -19 -11 -12 31 10 59 16 20 19 30 10 39 -8 8 -14 8 -23 -1 -10 -10 -10
-15 0 -21 11 -7 11 -9 -1 -14 -11 -4 -18 3 -22 24 -5 21 -14 31 -33 35 -15 3
-55 14 -89 25 -34 10 -71 19 -81 19 -10 0 -22 3 -26 7 -4 5 -11 8 -14 8 -10 0
-91 25 -123 38 -17 7 -42 39 -74 94 -49 86 -140 193 -164 193 -23 0 -6 61 45
167 27 54 50 109 52 123 2 13 12 50 23 82 10 32 19 72 19 90 1 18 7 61 14 95
7 34 11 64 9 67 -3 3 0 20 6 39 21 63 37 163 44 274 3 54 1 64 -15 69 -21 6
-20 5 -23 99 -2 98 -14 195 -31 257 -9 29 -17 67 -20 84 -2 17 -13 57 -24 89
-11 32 -18 60 -16 63 3 2 1 15 -5 29 -5 13 -11 37 -14 53 -3 17 -17 50 -30 75
-14 25 -23 45 -19 45 4 0 -1 9 -11 20 -10 11 -23 20 -29 20 -6 0 -22 14 -36
30 -14 17 -30 30 -37 30 -6 0 -14 8 -17 18 -4 10 -22 25 -41 32 -19 8 -35 18
-35 24 0 5 -3 6 -7 3 -3 -4 -20 2 -37 12 -32 19 -72 32 -116 37 -14 1 -38 5
-55 8 -37 8 -125 13 -129 8z m1128 -2458 c5 -14 4 -15 -9 -4 -17 14 -19 20 -6
20 5 0 12 -7 15 -16z m56 -4 c0 -5 -2 -10 -4 -10 -3 0 -8 5 -11 10 -3 6 -1 10
4 10 6 0 11 -4 11 -10z m-166 -462 c-2 -9 0 -19 6 -23 5 -3 10 -11 10 -17 0
-6 -9 -3 -20 7 -11 10 -17 22 -14 26 3 5 -3 6 -12 2 -13 -5 -14 -8 -4 -11 9
-3 5 -9 -11 -18 -13 -7 -18 -13 -10 -14 11 0 10 -4 -5 -16 -10 -8 -13 -13 -7
-9 8 4 11 1 7 -8 -3 -8 0 -18 6 -22 9 -6 9 -10 -1 -17 -11 -7 -10 -8 4 -4 12
4 16 2 11 -5 -3 -6 5 -3 20 6 14 10 26 13 26 9 0 -5 5 -2 10 6 9 13 11 13 20
0 5 -8 8 -20 5 -27 -2 -7 4 -10 16 -8 19 4 25 -5 13 -18 -9 -9 -64 21 -65 36
0 9 -2 9 -6 -1 -2 -6 -9 -10 -13 -7 -5 3 -12 0 -16 -6 -5 -8 -3 -9 6 -4 9 6
11 4 5 -5 -6 -9 -4 -11 5 -5 8 5 11 4 6 -3 -3 -6 -1 -14 5 -18 7 -4 9 -3 5 4
-3 6 -2 13 4 17 5 3 10 1 10 -5 0 -6 5 -8 10 -5 6 3 10 -2 10 -11 0 -10 -3
-14 -6 -11 -4 3 -15 2 -25 -4 -15 -7 -19 -7 -17 3 2 7 -4 12 -12 10 -8 -2 -12
0 -8 4 4 4 -2 15 -14 26 -21 18 -29 41 -29 81 1 36 5 45 19 39 10 -3 13 -1 8
6 -3 6 3 16 14 22 11 6 20 18 20 28 0 15 2 15 10 2 5 -8 7 -22 4 -32z m26 -45
c8 8 11 8 6 0 -10 -19 17 -22 39 -4 18 15 19 15 6 -1 -10 -14 -11 -21 -2 -32
10 -11 8 -17 -6 -26 -16 -10 -16 -10 3 -5 13 3 26 -1 33 -9 7 -8 18 -13 25
-10 6 2 12 -4 13 -16 2 -27 -14 -35 -22 -10 -7 20 -25 28 -25 10 0 -5 5 -10
11 -10 5 0 7 -5 3 -11 -5 -8 -9 -8 -14 1 -5 9 -9 9 -14 1 -4 -6 -3 -11 2 -11
5 0 9 -6 9 -14 0 -10 -11 -13 -39 -11 -21 1 -38 -2 -38 -7 0 -5 7 -8 16 -6 10
2 19 -2 21 -9 5 -14 -23 -11 -38 4 -16 16 -2 33 22 28 15 -3 19 0 15 11 -3 8
-2 13 3 10 12 -8 34 21 26 34 -3 6 -11 8 -16 5 -8 -6 -11 2 -8 22 2 14 -31 24
-50 14 -10 -6 -21 -7 -25 -4 -3 3 -6 0 -6 -7 0 -11 -3 -11 -16 2 -13 12 -14
20 -5 37 7 11 8 21 4 21 -4 0 -1 5 7 10 10 6 20 4 30 -5 13 -12 19 -12 30 -2z
m143 -142 c5 0 5 -7 0 -13 -20 -34 -7 -88 22 -88 6 0 4 4 -3 9 -10 6 -10 10 1
20 12 9 15 8 13 -6 0 -12 5 -17 15 -15 20 3 34 -27 20 -41 -7 -7 -7 -15 0 -24
14 -17 33 -17 23 0 -4 6 2 3 14 -7 12 -11 22 -16 22 -11 0 4 7 2 15 -5 8 -7
15 -16 15 -21 0 -11 -30 -39 -43 -39 -6 0 -2 7 9 16 10 8 13 12 6 9 -11 -6
-12 -3 -2 15 11 20 10 21 -9 11 -25 -14 -41 -14 -21 0 13 9 13 10 0 6 -8 -2
-21 3 -28 12 -11 14 -11 14 -6 -1 4 -11 1 -18 -6 -18 -6 0 -8 5 -5 10 3 6 2
10 -2 10 -5 0 -9 9 -10 20 -1 13 2 18 9 14 7 -5 8 -2 3 6 -5 9 -4 11 3 6 7 -4
12 -2 12 3 0 14 -17 14 -25 1 -3 -5 -11 -10 -17 -10 -6 0 -6 6 2 15 11 13 10
14 -4 9 -9 -3 -16 -11 -16 -17 0 -6 -3 -7 -7 -3 -5 4 -8 13 -8 19 0 7 -6 13
-12 13 -7 1 -18 2 -24 3 -5 0 -8 5 -4 11 3 5 11 8 18 6 7 -1 9 -1 5 1 -5 3 -8
9 -8 14 0 6 5 7 12 3 6 -4 8 -3 4 4 -7 12 -34 9 -64 -7 -11 -6 -23 -7 -27 -3
-5 4 -5 2 -1 -5 4 -7 13 -10 21 -7 9 4 12 0 10 -13 -2 -10 -4 -20 -4 -22 -1
-2 -10 6 -21 19 -11 13 -20 20 -20 16 0 -4 -9 -2 -19 4 -14 7 -22 7 -26 0 -4
-6 -3 -9 2 -8 4 1 18 -2 31 -6 18 -6 21 -11 12 -21 -10 -11 -8 -13 9 -10 14 2
19 0 15 -7 -5 -7 -2 -8 7 -2 8 4 22 10 31 11 15 2 15 -1 -3 -32 -12 -19 -25
-38 -30 -41 -5 -3 -7 -10 -3 -15 3 -6 12 -5 22 3 13 11 14 11 7 -1 -6 -10 -4
-12 6 -6 12 8 12 6 0 -9 -11 -13 -11 -16 -1 -14 7 2 15 -3 17 -10 4 -11 1 -12
-13 -3 -58 33 -68 57 -34 79 21 13 27 32 9 32 -5 0 -8 -4 -4 -9 14 -23 -18
-20 -42 3 -14 14 -30 26 -36 26 -6 0 -7 3 -4 7 4 3 2 13 -5 20 -15 18 7 34 39
28 25 -4 52 20 31 28 -7 3 -2 5 12 4 13 -1 25 4 26 11 1 6 2 14 3 16 1 4 23 3
64 -3z m-49 -73 c-5 -7 -9 -16 -9 -20 0 -20 -11 -13 -11 7 0 13 4 21 8 19 4
-3 8 0 8 7 0 7 3 10 6 6 3 -3 2 -12 -2 -19z m31 -36 c-7 -8 16 -33 25 -27 4 3
13 -2 20 -10 7 -8 9 -15 6 -15 -4 0 -2 -9 4 -21 7 -11 18 -18 25 -15 8 3 17 1
21 -5 3 -6 12 -8 20 -5 8 3 11 0 7 -10 -6 -17 -20 -18 -26 -1 -4 9 -6 9 -6 0
-1 -7 13 -20 29 -28 20 -10 28 -20 23 -28 -4 -7 -8 -16 -8 -22 0 -5 -14 -10
-31 -10 -17 0 -31 4 -31 11 0 6 11 10 23 8 12 -1 25 4 28 11 5 15 -2 25 -18
25 -6 0 -4 -5 4 -10 13 -8 13 -10 -1 -10 -9 0 -19 7 -23 15 -7 18 -55 13 -68
-7 -6 -11 -8 -11 -8 0 0 7 -4 11 -9 8 -5 -3 -16 5 -25 19 -9 14 -14 25 -10 25
4 0 1 7 -6 15 -7 9 -18 12 -24 8 -7 -5 -3 0 7 10 11 9 16 17 13 17 -4 0 -1 10
6 23 7 12 12 25 11 28 -1 3 5 6 13 6 8 0 12 -3 9 -5z m-1632 -396 c4 -10 1
-13 -8 -9 -8 3 -12 9 -9 14 7 12 11 11 17 -5z"/>
<path d="M2710 680 c0 -5 5 -10 10 -10 6 0 10 5 10 10 0 6 -4 10 -10 10 -5 0
-10 -4 -10 -10z"/>
<path d="M2670 760 c0 -5 5 -10 11 -10 5 0 7 5 4 10 -3 6 -8 10 -11 10 -2 0
-4 -4 -4 -10z"/>
<path d="M2710 741 c0 -4 -11 -8 -24 -7 -14 0 -24 -3 -23 -9 2 -12 27 -17 27
-5 0 5 11 7 25 5 20 -2 23 0 14 11 -13 16 -19 18 -19 5z"/>
<path d="M2804 613 c3 -6 -6 -21 -21 -32 l-28 -21 28 11 c15 7 27 16 27 20 0
4 9 6 20 4 11 -2 20 1 20 7 0 5 -6 8 -14 5 -7 -3 -19 0 -26 6 -10 9 -11 9 -6
0z"/>
<path d="M2707 524 c6 -15 23 -19 23 -5 0 5 -7 11 -14 14 -10 4 -13 1 -9 -9z"/>
<path d="M2746 485 c4 -8 11 -15 16 -15 6 0 5 6 -2 15 -7 8 -14 15 -16 15 -2
0 -1 -7 2 -15z"/>
<path d="M2825 491 c-6 -11 1 -15 18 -12 5 1 6 -3 2 -8 -3 -6 -12 -8 -19 -5
-9 3 -13 -2 -11 -18 1 -13 4 -24 5 -25 1 -2 3 -6 4 -10 3 -16 25 -47 26 -37 0
6 13 10 28 9 32 -3 35 13 12 55 -7 14 -13 26 -12 28 1 1 0 1 -2 0 -2 -2 -13 5
-24 15 -13 12 -22 15 -27 8z m50 -31 c-2 -4 2 -15 9 -26 8 -10 11 -24 8 -32
-4 -11 -6 -11 -13 0 -6 9 -9 9 -9 1 0 -7 -11 -2 -25 11 -29 27 -31 36 -10 36
8 0 15 4 15 8 0 5 7 9 15 9 8 0 12 -3 10 -7z m-25 -60 c0 -5 -2 -10 -4 -10 -3
0 -8 5 -11 10 -3 6 -1 10 4 10 6 0 11 -4 11 -10z"/>
<path d="M2842 441 c-11 -6 -10 -10 5 -16 37 -16 45 -14 27 6 -9 10 -18 19
-18 19 -1 0 -7 -4 -14 -9z"/>
<path d="M2924 409 c-3 -6 2 -18 12 -27 17 -16 17 -16 5 0 -7 9 -10 22 -6 28
3 5 4 10 1 10 -3 0 -8 -5 -12 -11z"/>
<path d="M3235 3630 c-3 -5 -1 -10 4 -10 6 0 11 5 11 10 0 6 -2 10 -4 10 -3 0
-8 -4 -11 -10z"/>
<path d="M3196 3619 c2 -4 -2 -10 -8 -13 -7 -3 -2 -3 12 1 22 5 23 4 12 -10
-14 -17 -42 -13 -42 7 0 6 -5 3 -11 -6 -5 -10 -15 -18 -21 -18 -9 0 -9 3 0 12
7 7 12 17 12 23 0 5 -5 2 -11 -7 -5 -10 -15 -18 -21 -18 -7 0 -6 6 2 15 11 13
10 14 -3 9 -9 -3 -19 -14 -22 -25 -4 -11 -11 -17 -16 -14 -5 4 -5 15 2 28 9
20 9 20 -4 5 -16 -20 -32 -25 -21 -6 4 7 3 8 -5 4 -6 -4 -20 -2 -29 6 -15 11
-16 11 -4 -3 10 -14 10 -18 -4 -23 -22 -8 -26 -8 -19 3 3 5 0 13 -6 17 -8 4
-9 3 -5 -4 4 -7 2 -12 -3 -12 -6 0 -11 5 -11 11 0 6 -9 1 -21 -12 -14 -17 -19
-19 -15 -7 7 22 -12 34 -27 19 -9 -9 -7 -10 8 -5 18 7 18 6 6 -9 -9 -11 -10
-17 -2 -17 6 0 11 -9 11 -20 0 -11 3 -19 8 -19 20 3 33 -2 27 -11 -4 -6 -2
-16 3 -23 5 -7 8 -20 7 -29 -2 -10 1 -20 6 -24 5 -3 7 -9 4 -14 -6 -9 14 -8
30 2 6 4 17 3 25 -3 12 -7 11 -9 -5 -10 -11 0 -14 -3 -7 -6 7 -3 19 1 27 7 9
7 15 8 15 2 0 -15 -26 -33 -36 -24 -5 4 -1 -2 9 -14 9 -11 15 -23 12 -26 -3
-2 3 -5 13 -5 9 0 20 5 24 11 4 6 10 7 14 3 4 -3 1 -14 -7 -24 -9 -11 -10 -14
-1 -9 6 4 13 2 13 -3 3 -21 4 -26 12 -38 10 -16 2 -16 -24 -3 -11 6 -18 7 -17
3 3 -10 -54 -68 -65 -65 -4 1 -6 -1 -6 -5 3 -21 -2 -33 -12 -27 -7 4 -9 -2 -7
-16 2 -16 -3 -24 -15 -26 -23 -3 -57 -33 -54 -47 1 -6 -2 -11 -8 -12 -15 -1
-52 -24 -38 -25 9 0 11 -27 3 -37 -2 -2 -3 -7 -4 -12 -2 -16 -16 -25 -16 -10
-1 10 -4 8 -11 -4 -13 -23 -4 -34 14 -18 12 9 18 6 32 -15 16 -25 16 -27 0
-21 -9 4 -19 7 -21 7 -3 0 -2 4 1 10 3 6 -1 7 -10 4 -10 -4 -14 -13 -10 -23 3
-9 -3 -5 -13 8 -15 18 -21 21 -27 11 -5 -9 -4 -11 3 -6 7 4 12 3 12 -3 0 -5
-5 -13 -10 -16 -8 -5 -8 -11 -1 -19 6 -7 9 -22 6 -35 -2 -13 2 -24 10 -28 8
-3 12 -9 9 -14 -3 -5 -10 -7 -15 -4 -5 4 -16 0 -24 -9 -17 -17 -20 -30 -5 -21
6 3 10 2 10 -4 0 -5 -3 -11 -7 -14 -5 -2 -3 -2 4 -1 7 2 15 -1 18 -6 9 -15 25
-12 25 5 0 8 5 15 11 15 5 0 7 -6 3 -12 -5 -9 -2 -8 9 1 15 12 20 11 35 -3 10
-9 22 -16 27 -16 4 0 -5 10 -21 22 -43 32 -52 42 -31 35 11 -4 16 -3 12 3 -3
6 -2 10 3 10 5 0 12 -9 15 -20 3 -11 11 -20 19 -20 8 0 9 3 2 8 -6 4 -13 15
-17 25 -5 13 -13 16 -27 12 -11 -4 -20 -2 -20 4 0 6 7 11 15 11 17 0 20 16 5
25 -14 9 7 35 28 35 14 0 14 -1 0 -12 -15 -12 -15 -16 0 -50 9 -21 21 -38 26
-38 4 0 1 11 -8 25 -9 14 -14 30 -11 34 3 5 -1 12 -7 14 -8 3 -5 6 6 6 12 1
16 6 12 16 -9 24 11 17 34 -12 15 -20 18 -22 10 -6 -5 12 -15 25 -20 28 -6 3
-10 11 -10 17 0 6 9 3 20 -7 11 -10 20 -13 20 -7 0 7 -5 12 -11 12 -5 0 -8 4
-4 9 3 5 -1 16 -9 23 -11 12 -9 16 14 30 27 15 28 15 28 -8 0 -20 -3 -22 -14
-13 -12 10 -13 9 -8 -4 6 -17 37 -18 54 -1 6 6 5 15 -1 24 -9 13 -10 12 -5 -2
3 -10 1 -20 -4 -23 -13 -8 -18 18 -7 39 9 19 10 19 23 1 15 -21 19 -8 5 14 -8
12 -12 12 -25 2 -12 -11 -15 -9 -13 8 1 15 6 19 19 15 18 -5 23 4 18 35 -1 13
1 13 14 2 12 -11 14 -17 5 -27 -8 -10 -9 -18 0 -27 6 -8 9 -17 6 -21 -3 -3 1
-1 7 4 10 9 10 13 -1 20 -12 7 -13 11 -1 25 7 9 19 14 26 11 16 -6 38 30 28
46 -4 6 -1 9 7 6 18 -6 19 -39 1 -60 -10 -12 -11 -18 -1 -24 7 -4 10 -3 6 3
-4 6 0 16 7 22 8 7 13 23 11 37 -2 18 5 29 24 40 21 12 22 14 4 9 -12 -3 -25
0 -29 6 -4 7 -3 9 4 5 6 -3 13 -2 17 4 4 6 12 7 18 3 7 -4 6 0 -2 10 -8 10 -9
17 -3 17 6 0 16 -8 21 -17 8 -15 11 -15 12 -3 1 8 1 20 0 26 -2 17 26 37 34
24 3 -5 12 -10 18 -10 7 0 4 5 -5 11 -10 5 -15 17 -12 27 5 14 4 15 -5 2 -10
-14 -16 -7 -12 13 1 5 -4 5 -10 1 -9 -5 -10 -2 -6 9 4 12 2 14 -11 10 -15 -6
-16 -5 -2 12 9 11 10 16 3 11 -8 -4 -13 -2 -13 4 0 6 -4 8 -10 5 -5 -3 -10 -2
-10 3 0 5 10 14 23 21 22 11 22 11 -3 5 -20 -5 -23 -4 -12 7 14 16 16 33 2 24
-5 -3 -10 -2 -10 4 0 5 6 11 13 14 9 3 7 9 -5 24 -23 25 -23 32 2 26 11 -3 18
-9 15 -13 -3 -5 -2 -11 3 -14 5 -3 9 2 9 11 0 9 -9 18 -19 21 -10 2 -18 9 -18
14 0 5 5 6 10 3 6 -4 10 -3 9 2 -3 20 2 34 11 28 6 -4 7 -11 4 -17 -5 -7 -2
-8 5 -4 9 6 8 13 -6 29 -16 18 -16 20 -1 14 12 -4 15 -2 12 8 -3 7 -14 12 -24
10 -10 -2 -21 2 -23 9 -7 19 46 15 55 -4 6 -11 7 -10 6 5 -2 11 2 27 7 35 7
13 6 13 -7 2 -14 -11 -17 -10 -22 6 -4 10 -13 19 -21 19 -8 0 -12 -4 -9 -8z
m-184 -47 c7 2 13 -7 14 -20 1 -15 -4 -21 -14 -20 -8 2 -17 -4 -19 -12 -4 -13
-3 -13 6 0 8 12 11 12 11 1 0 -10 3 -11 14 -2 8 7 17 8 19 3 3 -4 -3 -13 -14
-20 -12 -8 -19 -9 -19 -1 0 5 -5 7 -11 3 -8 -4 -7 -9 2 -15 7 -4 17 -5 23 -2
5 3 6 2 3 -4 -3 -5 0 -10 8 -10 18 0 20 13 3 20 -10 4 -10 6 -1 6 18 1 26 -18
13 -34 -12 -14 -11 -14 35 -5 24 5 27 -1 9 -15 -12 -10 -14 -14 -4 -12 8 2 11
2 7 -1 -5 -2 1 -11 13 -19 16 -11 19 -18 10 -23 -9 -5 -9 -9 -1 -14 10 -6 15
6 12 27 -1 9 13 9 22 0 4 -3 0 -15 -10 -25 -9 -10 -13 -21 -10 -25 4 -3 7 -1
7 6 0 7 4 10 9 7 5 -3 15 2 22 11 8 9 9 14 3 10 -6 -3 -11 0 -11 8 0 11 4 12
13 4 13 -11 15 -51 2 -43 -18 11 -7 -16 12 -29 11 -8 18 -16 15 -19 -3 -2 6
-15 20 -28 21 -20 22 -24 9 -38 -8 -8 -12 -22 -9 -30 5 -13 2 -12 -14 2 -11
10 -18 23 -15 28 4 6 9 5 14 -2 5 -8 9 -7 14 6 3 9 4 19 1 22 -3 3 -5 1 -5 -5
0 -5 -7 -10 -15 -10 -18 0 -19 9 -2 26 10 11 9 13 -1 7 -8 -5 -11 -2 -10 6 2
7 -3 12 -9 11 -7 -2 -14 2 -14 7 -1 6 -3 15 -4 20 -1 6 -3 13 -4 16 0 3 -6 2
-11 -1 -8 -5 -7 -11 1 -21 6 -8 8 -14 3 -14 -5 0 -2 -5 6 -10 13 -8 13 -10 1
-10 -11 0 -9 -4 5 -16 18 -14 18 -15 -6 -4 -21 9 -23 9 -10 -2 8 -7 15 -20 15
-28 0 -8 6 -14 12 -13 8 2 12 -6 9 -20 -2 -14 -9 -21 -20 -19 -18 3 -22 -13
-6 -23 15 -9 4 -22 -19 -20 -21 1 -51 22 -51 36 0 5 9 4 19 -3 11 -7 17 -17
14 -23 -4 -5 -2 -6 3 -2 5 5 9 12 10 15 0 4 4 15 9 25 6 14 10 15 24 5 13 -10
13 -9 -1 8 -10 11 -18 25 -18 31 0 11 -50 36 -58 29 -3 -3 4 -9 14 -13 10 -5
20 -12 21 -18 1 -5 4 -19 8 -30 6 -18 5 -18 -5 -3 -6 11 -17 15 -28 11 -14 -6
-15 -4 -4 9 10 13 10 18 1 24 -8 5 -9 3 -4 -5 6 -10 3 -11 -14 -2 -14 8 -21 8
-21 1 0 -5 7 -10 16 -10 8 0 13 -4 9 -9 -3 -6 -14 -8 -25 -6 -12 2 -18 0 -15
-5 3 -5 1 -11 -5 -15 -6 -4 -8 -10 -5 -15 3 -5 1 -11 -5 -15 -6 -4 -7 -11 -4
-17 5 -7 2 -8 -6 -3 -9 5 -11 4 -6 -3 4 -8 2 -10 -8 -6 -17 7 -41 -31 -30 -48
4 -6 3 -8 -4 -4 -6 3 -14 1 -18 -5 -4 -8 -9 -7 -15 2 -7 12 -9 12 -9 0 0 -8
-6 -11 -17 -7 -15 5 -15 4 1 -9 13 -10 15 -15 6 -15 -9 0 -8 -5 6 -16 18 -14
18 -15 -6 -4 -22 10 -23 10 -8 -3 20 -16 14 -28 -10 -21 -14 5 -14 4 1 -6 9
-6 14 -16 11 -22 -5 -7 -2 -8 6 -3 9 6 11 4 5 -5 -5 -9 -4 -11 4 -6 8 5 9 12
2 20 -7 9 -4 17 10 29 11 10 17 21 15 26 -11 16 21 33 41 22 10 -6 12 -11 5
-11 -6 0 -11 -6 -10 -12 2 -8 -5 -12 -16 -10 -10 2 -15 -1 -12 -6 3 -6 -1 -13
-10 -16 -15 -6 -15 -8 2 -27 14 -16 15 -19 2 -14 -9 4 -18 0 -21 -9 -4 -9 -11
-16 -17 -16 -6 0 -9 4 -5 9 3 5 1 12 -5 16 -6 4 -8 10 -5 15 3 4 -1 10 -9 13
-12 5 -15 33 -6 45 2 1 3 11 4 22 0 11 4 19 7 18 10 -5 39 24 34 32 -9 15 27
36 69 39 4 1 6 8 2 16 -3 8 2 18 10 23 9 5 15 11 13 13 -8 11 34 57 47 52 9
-3 14 0 12 8 -2 8 6 14 17 15 35 2 38 4 27 17 -5 6 -8 22 -6 35 2 14 0 21 -6
17 -5 -3 -7 0 -4 8 7 20 -13 32 -30 18 -10 -8 -16 -8 -25 3 -10 11 -8 17 9 29
22 15 14 28 -18 33 -8 2 -20 11 -29 21 -13 16 -14 16 -9 1 3 -10 1 -20 -3 -23
-12 -7 -29 17 -26 37 2 10 -1 20 -6 24 -5 3 -6 10 -3 16 4 6 -4 19 -17 28 -19
15 -21 21 -10 34 10 12 18 13 32 6 10 -6 24 -9 31 -8z m55 3 c20 -14 23 -14
32 2 6 11 11 13 11 5 0 -7 5 -10 10 -7 6 3 10 1 10 -6 0 -7 8 -5 20 6 19 17
26 12 21 -17 -1 -7 14 -12 31 -9 10 1 4 -20 -16 -57 -17 -32 -17 -35 0 -53 9
-10 15 -20 13 -20 -20 -7 -49 -4 -49 4 0 5 -7 4 -15 -3 -16 -13 -17 -12 -19
19 0 11 -4 23 -8 27 -5 4 -8 12 -8 18 0 6 4 5 9 -3 6 -9 11 -10 15 -2 4 6 2
11 -5 11 -8 0 -8 4 2 16 10 13 10 17 -2 25 -8 5 -12 9 -9 10 3 0 13 2 23 4 14
3 17 -1 12 -13 -12 -28 -14 -62 -4 -62 5 0 8 -3 8 -7 -3 -19 2 -31 15 -36 10
-4 13 -1 9 9 -3 7 -10 14 -16 14 -6 0 -7 3 -4 6 3 4 2 14 -3 24 -6 12 -5 17 5
17 7 0 11 -7 8 -16 -4 -14 -3 -14 5 -1 12 16 6 33 -9 25 -5 -4 -9 0 -9 9 0 9
8 13 25 12 13 -2 22 1 19 6 -3 5 -13 7 -21 4 -8 -3 -11 -1 -8 4 3 6 3 10 -2
11 -4 0 -16 2 -25 4 -10 2 -27 -8 -38 -22 -21 -28 -26 -24 -10 7 9 16 8 18 -5
14 -9 -4 -14 -9 -11 -12 3 -2 1 -14 -5 -25 -9 -15 -8 -18 2 -12 8 6 10 4 4 -6
-6 -11 -5 -12 6 -1 7 6 17 12 21 12 12 0 -14 -39 -30 -45 -7 -3 -10 0 -7 6 4
5 1 16 -5 24 -7 8 -9 15 -5 15 4 0 2 7 -5 16 -15 17 -23 64 -12 64 4 0 17 -7
29 -15z m120 -290 c0 -8 -4 -12 -9 -9 -5 3 -6 10 -3 15 9 13 12 11 12 -6z m3
-39 c0 -3 -4 -8 -10 -11 -5 -3 -10 -1 -10 4 0 6 5 11 10 11 6 0 10 -2 10 -4z
m-106 -45 c3 8 4 5 1 -6 -3 -13 4 -30 20 -47 26 -29 30 -38 17 -38 -5 0 -13 9
-18 20 -9 20 -9 20 -23 -2 -12 -20 -12 -21 0 -11 12 10 17 8 26 -6 9 -14 8
-17 -6 -16 -23 1 -42 15 -36 25 3 4 -1 10 -8 13 -10 4 -13 -4 -12 -24 1 -17
-3 -33 -8 -36 -6 -3 -7 -1 -3 5 10 16 -7 15 -22 0 -16 -16 -32 5 -25 33 6 21
26 27 21 7 -2 -7 2 -13 7 -13 6 0 9 4 7 9 -1 4 3 14 9 22 6 8 8 14 4 14 -4 0
-2 7 5 15 7 8 9 15 5 15 -4 0 -2 7 5 15 10 12 15 13 20 4 6 -8 9 -8 14 2z m31
-1 c-3 -5 -1 -10 6 -10 7 0 10 -3 6 -6 -9 -9 -28 6 -22 17 4 5 8 9 11 9 3 0 2
-4 -1 -10z m-158 -138 c-10 -10 -16 -21 -15 -23 2 -2 1 -3 -1 -1 -3 1 -6 9 -7
17 -1 8 2 13 6 10 5 -3 11 -1 15 5 3 5 9 10 12 10 3 0 -1 -8 -10 -18z m-72
-142 c-11 -13 -13 -20 -5 -25 15 -9 -19 -35 -38 -27 -11 4 -11 6 -1 13 7 4 17
5 23 2 5 -3 6 -1 2 5 -4 6 -14 9 -24 6 -11 -4 -10 -1 4 8 12 8 20 22 19 35 -1
19 1 20 18 12 17 -10 18 -12 2 -29z m-35 3 c0 -13 -3 -13 -15 -3 -8 7 -12 16
-9 21 8 13 24 1 24 -18z m17 -80 c-4 -3 -1 -13 6 -21 8 -11 8 -14 0 -9 -16 10
-44 -3 -37 -17 3 -6 -1 -2 -10 8 -18 23 -10 42 10 25 9 -7 14 -8 13 -3 -3 17
1 24 13 24 6 0 8 -3 5 -7z"/>
<path d="M2950 3562 c0 -4 8 -12 18 -18 13 -8 21 -7 34 5 16 16 16 17 -2 17
-10 0 -16 -4 -14 -8 3 -4 0 -8 -5 -8 -6 0 -11 5 -11 10 0 6 -4 10 -10 10 -5 0
-10 -3 -10 -8z"/>
<path d="M3090 3400 c0 -5 -3 -9 -7 -7 -5 1 -9 -1 -10 -5 -4 -10 -1 -11 20 -3
18 8 24 25 7 25 -5 0 -10 -4 -10 -10z"/>
<path d="M3134 3316 c1 -8 5 -18 8 -22 4 -3 5 1 4 10 -1 8 -5 18 -8 22 -4 3
-5 -1 -4 -10z"/>
<path d="M2961 3131 c-8 -5 -16 -17 -17 -25 -3 -20 12 -11 26 15 12 21 11 22
-9 10z"/>
<path d="M2975 3051 c-3 -5 -2 -12 3 -15 5 -3 9 1 9 9 0 17 -3 19 -12 6z"/>
<path d="M3045 3557 c1 -11 8 -23 16 -25 11 -3 11 -1 -1 7 -10 7 -11 11 -2 11
16 0 16 17 -1 23 -9 3 -13 -2 -12 -16z"/>
<path d="M3123 3435 c0 -8 4 -12 9 -9 5 3 6 10 3 15 -9 13 -12 11 -12 -6z"/>
<path d="M3055 3181 c3 -5 1 -12 -5 -16 -14 -9 -3 -24 15 -21 18 3 19 5 10 29
-4 9 -11 17 -17 17 -5 0 -7 -4 -3 -9z m19 -19 c3 -5 -1 -9 -9 -9 -8 0 -12 4
-9 9 3 4 7 8 9 8 2 0 6 -4 9 -8z"/>
<path d="M3290 3620 c0 -5 5 -10 11 -10 5 0 7 5 4 10 -3 6 -8 10 -11 10 -2 0
-4 -4 -4 -10z"/>
<path d="M3326 3622 c-3 -5 1 -9 9 -9 8 0 12 4 9 9 -3 4 -7 8 -9 8 -2 0 -6 -4
-9 -8z"/>
<path d="M3267 3574 c2 -7 11 -10 19 -7 19 7 18 10 -5 16 -13 3 -18 1 -14 -9z"/>
<path d="M835 3571 c-3 -5 -2 -12 3 -15 5 -3 9 1 9 9 0 17 -3 19 -12 6z"/>
<path d="M3255 3539 c-4 -6 -5 -12 -2 -15 2 -3 7 2 10 11 7 17 1 20 -8 4z"/>
<path d="M3330 3539 c0 -5 5 -7 10 -4 6 3 10 8 10 11 0 2 -4 4 -10 4 -5 0 -10
-5 -10 -11z"/>
<path d="M3273 3511 c0 -11 5 -18 9 -15 4 3 5 11 1 19 -7 21 -12 19 -10 -4z"/>
<path d="M3242 3481 c-11 -6 -9 -9 6 -13 15 -4 19 -2 15 8 -6 16 -4 16 -21 5z"/>
<path d="M3240 3439 c0 -5 5 -7 10 -4 6 3 10 8 10 11 0 2 -4 4 -10 4 -5 0 -10
-5 -10 -11z"/>
<path d="M3220 3412 c0 -11 27 -42 37 -42 3 0 -2 10 -13 23 -10 12 -20 24 -21
26 -2 2 -3 -1 -3 -7z"/>
<path d="M3270 3395 c5 -7 6 -16 2 -21 -4 -5 -3 -5 2 -1 15 12 15 34 0 34 -9
0 -11 -4 -4 -12z"/>
<path d="M3228 3343 c7 -3 16 -2 19 1 4 3 -2 6 -13 5 -11 0 -14 -3 -6 -6z"/>
<path d="M3254 3315 c1 -8 6 -18 11 -22 4 -5 5 -2 0 6 -6 11 -4 13 8 8 23 -9
21 0 -2 13 -15 7 -19 7 -17 -5z"/>
<path d="M3195 3139 c-3 -4 2 -6 10 -5 21 3 28 13 10 13 -9 0 -18 -4 -20 -8z"/>
<path d="M2943 2895 c-8 -22 5 -31 20 -15 10 10 9 11 -2 5 -11 -6 -13 -4 -8 8
3 10 4 17 1 17 -2 0 -7 -7 -11 -15z"/>
<path d="M2960 2820 c-9 -6 -10 -10 -3 -10 6 0 15 5 18 10 8 12 4 12 -15 0z"/>
<path d="M2870 2779 c-12 -8 -10 -9 9 -4 17 5 22 4 16 -5 -5 -9 -4 -11 4 -6 6
4 9 12 6 17 -8 12 -16 11 -35 -2z"/>
<path d="M2761 2773 c-13 -3 -26 -13 -28 -24 -3 -10 -9 -17 -13 -14 -5 3 -11
1 -15 -4 -3 -5 2 -14 11 -19 14 -8 13 -12 -10 -35 -29 -29 -42 -35 -30 -14 4
7 3 9 -2 4 -5 -5 -9 -14 -9 -20 -1 -7 -7 -11 -14 -9 -7 1 -10 -2 -6 -8 3 -6
10 -8 15 -5 5 3 14 -3 20 -12 8 -13 10 -14 9 -3 -3 29 1 41 11 35 5 -3 8 -11
6 -18 -1 -7 -1 -9 1 -4 3 4 12 7 21 8 12 0 10 3 -5 9 -26 11 -31 27 -8 27 8 0
15 -4 15 -9 0 -4 5 -8 11 -8 8 0 8 5 -1 15 -10 12 -10 18 0 30 7 8 16 12 21 9
5 -3 8 0 7 7 -2 6 3 14 10 16 6 3 10 -1 9 -9 -2 -7 -2 -10 0 -5 3 4 10 4 16 0
7 -3 9 -3 5 2 -9 9 9 45 23 45 6 0 6 -8 -1 -22 -10 -21 -10 -21 3 -6 17 22 31
11 14 -11 -10 -14 -10 -14 5 -3 14 11 15 17 5 33 -6 10 -16 19 -22 20 -5 0
-19 2 -30 3 -11 2 -31 1 -44 -1z m46 -24 c-6 -10 -15 -15 -20 -12 -4 3 -17 -3
-28 -13 -24 -21 -34 -13 -19 16 7 12 18 19 26 16 8 -3 14 -1 14 4 0 5 8 8 19
7 15 -1 17 -4 8 -18z"/>
<path d="M2870 2756 c0 -2 8 -10 18 -17 15 -13 16 -12 3 4 -13 16 -21 21 -21
13z"/>
<path d="M2819 2708 c-1 -2 -3 -13 -4 -26 -2 -21 -1 -22 16 -6 24 21 25 31 2
13 -15 -12 -16 -12 -10 4 5 13 1 26 -4 15z"/>
<path d="M2750 2680 c0 -5 7 -7 15 -4 8 4 15 8 15 10 0 2 -7 4 -15 4 -8 0 -15
-4 -15 -10z"/>
<path d="M2756 2634 c-8 -22 -8 -24 6 -24 6 0 8 3 5 7 -4 3 -2 12 4 20 7 8 8
13 1 13 -5 0 -13 -7 -16 -16z"/>
<path d="M2660 2590 c11 -21 30 -27 30 -9 0 5 -4 7 -10 4 -5 -3 -10 1 -10 9 0
9 -5 16 -10 16 -7 0 -7 -6 0 -20z"/>
<path d="M2701 2597 c2 -1 12 -9 22 -16 15 -12 17 -12 11 3 -3 9 -13 16 -22
16 -8 0 -13 -1 -11 -3z"/>
<path d="M2631 2576 c-11 -13 -11 -19 0 -32 11 -14 13 -14 21 0 5 9 5 23 0 32
-8 14 -10 14 -21 0z m19 -16 c0 -5 -4 -10 -10 -10 -5 0 -10 5 -10 10 0 6 5 10
10 10 6 0 10 -4 10 -10z"/>
<path d="M2600 2551 c0 -5 23 -31 50 -57 28 -27 48 -54 46 -61 -3 -7 -2 -12 2
-12 28 4 40 -3 35 -21 -6 -23 22 -39 39 -22 8 8 5 9 -10 5 -18 -4 -21 -1 -17
17 3 15 -1 24 -13 27 -20 5 -48 43 -33 43 6 0 13 -4 16 -10 3 -5 12 -10 18
-10 7 0 4 5 -6 11 -15 9 -16 13 -5 27 11 13 10 13 -13 -1 -25 -17 -26 -16 -67
28 -23 25 -42 41 -42 36z"/>
<path d="M2671 2541 c-15 -27 12 -62 31 -42 11 12 10 13 -4 8 -20 -7 -29 11
-16 36 5 9 6 17 4 17 -3 0 -10 -8 -15 -19z"/>
<path d="M2695 2539 c-4 -6 -5 -12 -2 -15 2 -3 7 2 10 11 7 17 1 20 -8 4z"/>
<path d="M2720 2546 c0 -2 7 -7 16 -10 8 -3 12 -2 9 4 -6 10 -25 14 -25 6z"/>
<path d="M2711 2527 c2 -1 13 -9 24 -17 19 -14 19 -14 6 3 -7 9 -18 17 -24 17
-6 0 -8 -1 -6 -3z"/>
<path d="M2735 2480 c-3 -5 -1 -10 4 -10 6 0 11 5 11 10 0 6 -2 10 -4 10 -3 0
-8 -4 -11 -10z"/>
<path d="M2753 2445 c0 -8 4 -12 9 -9 5 3 6 10 3 15 -9 13 -12 11 -12 -6z"/>
<path d="M2704 2358 c1 -28 26 -55 26 -28 0 6 -4 8 -10 5 -5 -3 -10 4 -10 16
0 18 2 19 15 9 9 -7 17 -11 19 -9 2 2 -6 12 -18 21 -23 16 -23 16 -22 -14z"/>
<path d="M2793 2369 c-2 -23 3 -25 10 -4 4 8 3 16 -1 19 -4 3 -9 -4 -9 -15z"/>
<path d="M2749 2326 c-7 -14 -17 -22 -25 -19 -8 3 -14 3 -14 0 0 -3 7 -8 15
-11 10 -4 20 3 27 19 6 13 15 22 21 18 6 -3 7 -1 3 5 -10 17 -15 15 -27 -12z"/>
<path d="M2757 2297 c-3 -8 -2 -20 3 -26 5 -9 8 -4 8 13 0 29 -3 32 -11 13z"/>
<path d="M2784 2270 c0 -13 4 -16 10 -10 7 7 7 13 0 20 -6 6 -10 3 -10 -10z"/>
<path d="M2830 2279 c0 -5 5 -7 10 -4 6 3 10 8 10 11 0 2 -4 4 -10 4 -5 0 -10
-5 -10 -11z"/>
<path d="M2740 2256 c0 -2 7 -9 15 -16 9 -7 15 -8 15 -2 0 5 -7 12 -15 16 -8
3 -15 4 -15 2z"/>
<path d="M2830 2239 c0 -5 5 -7 10 -4 6 3 10 8 10 11 0 2 -4 4 -10 4 -5 0 -10
-5 -10 -11z"/>
<path d="M2790 2223 c5 -2 8 -9 4 -14 -3 -5 2 -12 10 -15 9 -3 13 -11 9 -18
-3 -6 -2 -7 2 -3 15 13 14 36 -1 30 -9 -3 -14 0 -12 7 2 7 -3 14 -10 16 -7 1
-8 0 -2 -3z"/>
<path d="M2760 2211 c13 -9 13 -11 1 -11 -11 0 -9 -4 5 -15 10 -8 24 -14 29
-14 6 0 1 6 -10 15 -11 8 -19 18 -17 22 2 3 -2 8 -10 10 -9 2 -8 0 2 -7z"/>
<path d="M2856 2167 c3 -10 9 -15 12 -12 3 3 0 11 -7 18 -10 9 -11 8 -5 -6z"/>
<path d="M2821 2156 c-8 -10 -9 -16 -1 -21 6 -4 9 -1 8 7 -2 7 3 12 10 10 8
-1 11 2 7 8 -8 13 -10 13 -24 -4z"/>
<path d="M2787 2096 c-4 -9 -2 -18 4 -22 5 -3 7 -14 4 -24 -3 -10 -2 -21 3
-24 9 -5 9 70 0 79 -3 3 -8 -1 -11 -9z"/>
<path d="M2850 2100 c0 -5 5 -10 11 -10 5 0 7 5 4 10 -3 6 -8 10 -11 10 -2 0
-4 -4 -4 -10z"/>
<path d="M2754 2029 c0 -10 4 -19 8 -19 4 0 8 6 8 14 0 8 -4 17 -8 20 -4 2 -8
-4 -8 -15z"/>
<path d="M2826 2018 c3 -5 10 -6 15 -3 13 9 11 12 -6 12 -8 0 -12 -4 -9 -9z"/>
<path d="M2772 1994 c-10 -24 -10 -26 0 -14 15 18 26 19 48 5 13 -8 13 -7 1 8
-7 9 -17 15 -21 12 -5 -3 -10 0 -12 6 -2 6 -9 -2 -16 -17z"/>
<path d="M2855 1980 c-3 -5 -1 -10 4 -10 6 0 11 5 11 10 0 6 -2 10 -4 10 -3 0
-8 -4 -11 -10z"/>
<path d="M2787 1953 c3 -7 8 -13 12 -13 4 0 8 6 8 13 0 8 -6 14 -13 14 -7 0
-10 -6 -7 -14z"/>
<path d="M2790 1918 c0 -4 9 -7 20 -5 29 5 33 13 5 13 -14 0 -25 -4 -25 -8z"/>
<path d="M2786 1862 c-3 -5 1 -9 9 -9 8 0 15 4 15 9 0 4 -4 8 -9 8 -6 0 -12
-4 -15 -8z"/>
<path d="M2819 1833 c-13 -17 -13 -17 6 -3 11 8 22 16 24 17 2 2 0 3 -6 3 -6
0 -17 -8 -24 -17z"/>
<path d="M2653 1702 c-9 -5 -6 -12 10 -21 19 -13 21 -12 10 1 -7 8 -10 18 -6
21 9 9 1 8 -14 -1z"/>
<path d="M2614 1678 c2 -7 -4 -22 -13 -33 -14 -18 -14 -18 9 1 14 12 32 19 40
17 13 -4 13 -3 0 6 -8 5 -17 8 -21 5 -4 -2 -10 1 -12 6 -3 6 -4 5 -3 -2z"/>
<path d="M2664 1613 c16 -20 36 -23 36 -6 0 4 -3 3 -7 0 -3 -4 -16 1 -27 10
-21 18 -21 18 -2 -4z"/>
<path d="M2640 1601 c0 -6 5 -11 11 -11 5 0 7 -5 3 -11 -4 -8 -9 -8 -17 0 -17
17 -22 13 -25 -14 -1 -17 4 -28 16 -31 9 -3 25 -10 34 -15 23 -12 28 -11 28 2
0 5 -5 7 -10 4 -6 -3 -13 0 -16 8 -3 8 -13 13 -23 10 -12 -3 -18 1 -18 12 0 9
6 14 13 11 21 -8 37 19 19 34 -10 9 -15 9 -15 1z"/>
<path d="M2673 1565 c-3 -9 -3 -18 -1 -21 3 -3 8 4 11 16 6 23 -1 27 -10 5z"/>
<path d="M2704 1562 c4 -3 14 -7 22 -8 9 -1 13 0 10 4 -4 3 -14 7 -22 8 -9 1
-13 0 -10 -4z"/>
<path d="M2704 1536 c24 -19 32 -20 42 -4 4 7 3 8 -4 4 -6 -4 -22 -2 -34 4
-22 11 -22 10 -4 -4z"/>
<path d="M2756 1513 c-6 -14 -5 -15 5 -6 7 7 10 15 7 18 -3 3 -9 -2 -12 -12z"/>
<path d="M2635 1500 c4 -6 11 -8 16 -5 14 9 11 15 -7 15 -8 0 -12 -5 -9 -10z"/>
<path d="M2708 1503 c7 -3 16 -2 19 1 4 3 -2 6 -13 5 -11 0 -14 -3 -6 -6z"/>
<path d="M2665 1489 c-4 -6 -4 -13 -1 -16 3 -4 6 -1 6 6 0 7 5 9 10 6 6 -3 10
-1 10 4 0 14 -17 14 -25 0z"/>
<path d="M2704 1476 c5 -14 2 -17 -11 -12 -17 6 -17 5 -1 -7 10 -8 14 -17 10
-21 -4 -4 0 -6 8 -4 8 2 14 -4 15 -12 0 -8 6 -15 14 -15 8 0 16 -6 19 -14 3
-9 0 -11 -8 -6 -9 5 -11 4 -6 -3 4 -7 1 -12 -6 -12 -19 -1 23 -24 50 -27 12
-2 22 0 22 4 -1 12 -30 48 -30 37 0 -6 5 -15 12 -22 8 -8 8 -12 1 -12 -17 0
-30 23 -27 52 2 16 -4 32 -14 40 -15 12 -16 11 -3 -5 17 -22 9 -33 -9 -12 -7
8 -13 27 -13 43 0 15 -2 21 -5 13 -4 -11 -6 -11 -14 0 -7 11 -8 9 -4 -5z"/>
<path d="M2752 1471 c-11 -7 -11 -9 0 -14 9 -3 15 1 15 9 0 8 -1 14 -1 14 -1
0 -7 -4 -14 -9z"/>
<path d="M2781 1444 c0 -11 3 -14 6 -6 3 7 2 16 -1 19 -3 4 -6 -2 -5 -13z"/>
<path d="M2800 1431 c0 -6 4 -13 10 -16 6 -3 7 1 4 9 -7 18 -14 21 -14 7z"/>
<path d="M2840 1420 c-9 -6 -10 -10 -3 -10 6 0 15 5 18 10 8 12 4 12 -15 0z"/>
<path d="M2780 1406 c0 -2 7 -7 16 -10 8 -3 12 -2 9 4 -6 10 -25 14 -25 6z"/>
<path d="M2815 1379 c-6 -8 -4 -10 5 -4 10 6 12 4 6 -11 -6 -15 -5 -17 5 -6 9
9 10 15 2 23 -8 8 -13 7 -18 -2z"/>
<path d="M2830 1340 c-12 -7 -10 -9 7 -7 12 0 19 5 17 9 -6 10 -6 10 -24 -2z"/>
<path d="M2780 1320 c18 -12 30 -13 30 -2 0 4 -10 9 -22 9 -18 2 -20 0 -8 -7z"/>
<path d="M2825 1309 c-4 -6 -4 -13 -1 -16 3 -4 6 -1 6 5 0 6 8 13 18 15 15 4
15 5 0 6 -9 0 -20 -4 -23 -10z"/>
<path d="M2877 1313 c-10 -9 -9 -23 1 -23 5 0 9 7 9 15 0 17 -1 18 -10 8z"/>
<path d="M2894 1279 c-3 -6 -2 -15 3 -20 5 -5 9 -1 9 11 0 23 -2 24 -12 9z"/>
<path d="M2870 1201 c0 -5 7 -12 16 -15 24 -9 27 -7 10 9 -17 17 -26 19 -26 6z"/>
<path d="M2950 1190 c0 -5 5 -10 11 -10 5 0 7 5 4 10 -3 6 -8 10 -11 10 -2 0
-4 -4 -4 -10z"/>
<path d="M2932 1158 c3 -7 12 -14 22 -14 13 -2 13 -1 1 3 -8 2 -13 9 -10 14 4
5 1 9 -5 9 -7 0 -10 -6 -8 -12z"/>
<path d="M2957 1083 c-13 -12 -7 -23 11 -22 10 0 12 3 4 6 -6 2 -10 9 -6 14 6
10 0 12 -9 2z"/>
<path d="M2755 911 c-3 -5 -2 -12 3 -15 5 -3 9 1 9 9 0 17 -3 19 -12 6z"/>
<path d="M2793 885 c0 -8 4 -12 9 -9 5 3 6 10 3 15 -9 13 -12 11 -12 -6z"/>
<path d="M2750 835 c0 -8 4 -15 8 -15 5 0 9 7 9 15 0 8 -4 15 -9 15 -4 0 -8
-7 -8 -15z"/>
<path d="M2836 731 c-3 -4 1 -17 10 -27 14 -18 15 -18 5 2 -6 12 -7 24 -4 28
3 3 4 6 0 6 -3 0 -8 -4 -11 -9z"/>
<path d="M2802 718 c2 -6 10 -13 16 -14 7 -1 8 0 2 3 -5 2 -8 9 -4 14 3 5 0 9
-6 9 -7 0 -10 -5 -8 -12z"/>
<path d="M2890 661 c0 -6 4 -13 10 -16 6 -3 7 1 4 9 -7 18 -14 21 -14 7z"/>
<path d="M3076 461 c-3 -5 2 -15 12 -22 15 -12 16 -12 5 2 -7 9 -10 19 -6 22
3 4 4 7 0 7 -3 0 -8 -4 -11 -9z"/>
<path d="M3060 400 c8 -5 20 -10 25 -10 6 0 3 5 -5 10 -8 5 -19 10 -25 10 -5
0 -3 -5 5 -10z"/>
<path d="M3037 383 c-10 -9 -9 -23 1 -23 5 0 9 7 9 15 0 17 -1 18 -10 8z"/>
<path d="M3057 360 c-5 -20 9 -38 20 -26 4 3 2 6 -4 6 -6 0 -9 9 -6 20 3 11 3
20 0 20 -2 0 -7 -9 -10 -20z"/>
<path d="M3090 376 c0 -2 8 -10 18 -17 15 -13 16 -12 3 4 -13 16 -21 21 -21
13z"/>
<path d="M3130 361 c0 -6 4 -13 10 -16 6 -3 7 1 4 9 -7 18 -14 21 -14 7z"/>
<path d="M2950 279 c0 -5 5 -7 10 -4 6 3 10 8 10 11 0 2 -4 4 -10 4 -5 0 -10
-5 -10 -11z"/>
<path d="M2886 257 c3 -10 9 -15 12 -12 3 3 0 11 -7 18 -10 9 -11 8 -5 -6z"/>
<path d="M2959 248 c-5 -18 -6 -38 -1 -34 7 8 12 36 6 36 -2 0 -4 -1 -5 -2z"/>
<path d="M3070 239 c0 -5 5 -7 10 -4 6 3 10 8 10 11 0 2 -4 4 -10 4 -5 0 -10
-5 -10 -11z"/>
<path d="M1051 103 c-1 -17 16 -25 25 -12 4 7 3 9 -4 5 -5 -3 -13 0 -15 6 -4
9 -6 10 -6 1z"/>
<path d="M1134 98 c-4 -5 -3 -12 0 -15 3 -4 6 -1 6 6 0 7 4 10 9 6 5 -3 12 -2
15 3 3 5 -2 9 -10 9 -8 0 -17 -4 -20 -9z"/>
<path d="M1435 100 c-3 -5 -1 -10 4 -10 6 0 11 5 11 10 0 6 -2 10 -4 10 -3 0
-8 -4 -11 -10z"/>
<path d="M855 89 c-4 -6 -5 -12 -2 -15 2 -3 7 2 10 11 7 17 1 20 -8 4z"/>
<path d="M1094 91 c4 -5 1 -11 -6 -13 -8 -3 -7 -6 3 -10 10 -4 15 1 16 13 1
10 -3 19 -8 19 -6 0 -8 -4 -5 -9z"/>
<path d="M1353 85 c0 -8 4 -12 9 -9 5 3 6 10 3 15 -9 13 -12 11 -12 -6z"/>
<path d="M885 79 c-3 -4 2 -6 10 -5 21 3 28 13 10 13 -9 0 -18 -4 -20 -8z"/>
<path d="M970 86 c0 -2 7 -7 16 -10 8 -3 12 -2 9 4 -6 10 -25 14 -25 6z"/>
<path d="M1020 80 c8 -5 20 -10 25 -10 6 0 3 5 -5 10 -8 5 -19 10 -25 10 -5 0
-3 -5 5 -10z"/>
<path d="M1166 82 c-3 -5 1 -9 9 -9 8 0 15 4 15 9 0 10 -17 10 -24 0z"/>
<path d="M1147 59 c7 -7 15 -10 18 -7 3 3 -2 9 -12 12 -14 6 -15 5 -6 -5z"/>
</g>
</svg>
