<?xml version="1.0" standalone="no"?>
<!DOCTYPE svg PUBLIC "-//W3C//DTD SVG 20010904//EN"
 "http://www.w3.org/TR/2001/REC-SVG-20010904/DTD/svg10.dtd">
<svg version="1.0" xmlns="http://www.w3.org/2000/svg"
 width="500.000000pt" height="500.000000pt" viewBox="0 0 500.000000 500.000000"
 preserveAspectRatio="xMidYMid meet">
<metadata>
Created by potrace 1.14, written by Peter Selinger 2001-2017
</metadata>
<g transform="translate(0.000000,500.000000) scale(0.100000,-0.100000)"
fill="#000000" stroke="none">
<path d="M2339 4946 c-2 -2 -33 -6 -69 -10 -217 -19 -442 -72 -657 -155 -194
-75 -436 -215 -623 -360 -106 -82 -304 -279 -393 -391 -299 -376 -475 -811
-526 -1300 -10 -94 -7 -439 4 -515 65 -430 174 -730 382 -1050 108 -166 179
-252 333 -405 331 -332 767 -566 1229 -660 93 -19 116 -23 211 -36 76 -10 441
-13 515 -3 39 5 93 11 120 15 103 12 298 58 420 99 509 171 960 515 1253 954
102 154 92 137 171 296 116 235 198 498 226 730 4 28 9 61 12 75 3 14 6 120 8
235 3 223 -11 375 -51 555 -3 14 -7 36 -10 50 -3 14 -8 34 -11 45 -4 11 -8 22
-8 25 -31 130 -116 349 -193 495 -267 506 -687 892 -1227 1126 -153 67 -444
147 -595 164 -30 4 -66 9 -80 11 -31 6 -436 15 -441 10z"/>
</g>
</svg>
